<mxfile host="app.diagrams.net" modified="2024-03-27T17:01:21.752Z" agent="Mozilla/5.0 (Macintosh; Intel Mac OS X 10_15_7) AppleWebKit/537.36 (KHTML, like Gecko) Chrome/121.0.0.0 Safari/537.36 OPR/107.0.0.0 (Edition std-1)" version="24.2.0" etag="HgBYxNbAWtwpEfLY6-rg" type="github">
  <diagram name="Page-1" id="Xr403WYXMtWlzFswWIsv">
    <mxGraphModel>
      <root>
        <mxCell id="0" />
        <mxCell id="1" parent="0" />
      </root>
    </mxGraphModel>
  </diagram>
</mxfile>
